<svg xmlns="http://www.w3.org/2000/svg" xmlns:xlink="http://www.w3.org/1999/xlink" width="500" zoomAndPan="magnify" viewBox="0 0 375 374.999991" height="500" preserveAspectRatio="xMidYMid meet" version="1.0"><defs><g/><clipPath id="b4cbcba71d"><path d="M 24 14 L 354 14 L 354 321 L 24 321 Z M 24 14 " clip-rule="nonzero"/></clipPath><clipPath id="f032c5c6ee"><path d="M 23.808594 54.644531 L 23.808594 282.808594 C 23.808594 310.558594 46.304688 333.058594 74.058594 333.058594 L 312.703125 333.058594 C 340.457031 333.058594 362.953125 310.558594 362.953125 282.808594 L 362.953125 54.644531 C 362.953125 26.890625 340.457031 4.394531 312.703125 4.394531 L 74.058594 4.394531 C 46.304688 4.394531 23.808594 26.890625 23.808594 54.644531 Z M 23.808594 54.644531 " clip-rule="nonzero"/></clipPath><clipPath id="ad72d00a3f"><path d="M 239.25 230.714844 L 366.554688 230.714844 L 366.554688 358 L 239.25 358 Z M 239.25 230.714844 " clip-rule="nonzero"/></clipPath><clipPath id="4fdef39953"><path d="M 234.992188 226.453125 L 370.195312 226.453125 L 370.195312 361.660156 L 234.992188 361.660156 Z M 234.992188 226.453125 " clip-rule="nonzero"/></clipPath></defs><g clip-path="url(#b4cbcba71d)"><g clip-path="url(#f032c5c6ee)"><path fill="#f2ac02" d="M 349.320312 205.933594 L 343.035156 225.71875 C 326.386719 264.625 298.324219 292.207031 258.84375 308.472656 C 219.136719 324.660156 176.875 324.960938 132.050781 309.371094 C 89.757812 292.457031 59.203125 265.28125 40.386719 227.839844 C 34.378906 215.753906 30.070312 203.121094 27.460938 189.941406 L 24.972656 169.988281 C 24.214844 156.484375 25.453125 142.878906 28.691406 129.167969 C 39.902344 87.410156 63.925781 56.183594 100.765625 35.488281 C 137.605469 14.796875 178.863281 9.355469 224.53125 19.167969 C 269.691406 31.105469 304.011719 54.636719 327.484375 89.769531 C 350.957031 124.902344 358.238281 163.625 349.320312 205.933594 " fill-opacity="1" fill-rule="nonzero"/></g></g><g fill="#ffffff" fill-opacity="1"><g transform="translate(201.794331, 277.296105)"><g><path d="M 67.503906 -84.730469 L 31.929688 -85.289062 L 31.929688 -70.726562 L 54.621094 -69.464844 L 54.621094 -45.097656 L 31.792969 -46.496094 L 31.511719 -1.402344 L 2.800781 0 L 2.800781 -112.179688 L 68.203125 -110.078125 Z M 67.503906 -84.730469 "/></g></g></g><g fill="#1e1e1e" fill-opacity="1"><g transform="translate(195.604561, 271.106335)"><g><path d="M 67.460938 -82.105469 L 31.890625 -82.664062 L 31.929688 -85.289062 L 34.558594 -85.289062 L 34.558594 -70.726562 L 31.929688 -70.726562 L 32.078125 -73.347656 L 57.246094 -71.949219 L 57.246094 -42.304688 L 31.628906 -43.875 L 31.792969 -46.496094 L 34.417969 -46.480469 L 34.121094 1.101562 L 0.175781 2.757812 L 0.175781 -114.890625 L 70.902344 -112.621094 L 70.058594 -82.0625 Z M 67.546875 -87.355469 L 67.503906 -84.730469 L 64.878906 -84.804688 L 65.578125 -110.152344 L 68.203125 -110.078125 L 68.121094 -107.453125 L 2.714844 -109.554688 L 2.800781 -112.179688 L 5.425781 -112.179688 L 5.425781 0 L 2.800781 0 L 2.671875 -2.621094 L 31.382812 -4.023438 L 31.511719 -1.402344 L 28.886719 -1.417969 L 29.183594 -49.289062 L 54.78125 -47.71875 L 54.621094 -45.097656 L 51.992188 -45.097656 L 51.992188 -69.464844 L 54.621094 -69.464844 L 54.472656 -66.84375 L 29.304688 -68.242188 L 29.304688 -87.957031 Z M 67.546875 -87.355469 "/></g></g></g><g fill="#fd652f" fill-opacity="1"><g transform="translate(277.319722, 274.520783)"><g><path d="M 12.234375 -78.34375 L 86.195312 -76.882812 L 86.195312 -49.125 L 10.957031 -49.855469 Z M 12.234375 -78.34375 "/></g></g></g><g fill="#1e1e1e" fill-opacity="1"><g transform="translate(269.248492, 266.44954)"><g><path d="M 12.304688 -81.769531 L 89.621094 -80.242188 L 89.621094 -45.667969 L 7.378906 -46.464844 L 8.964844 -81.832031 Z M 12.167969 -74.921875 L 12.234375 -78.34375 L 15.65625 -78.191406 L 14.378906 -49.703125 L 10.957031 -49.855469 L 10.992188 -53.28125 L 86.230469 -52.550781 L 86.195312 -49.125 L 82.773438 -49.125 L 82.773438 -76.882812 L 86.195312 -76.882812 L 86.128906 -73.460938 Z M 12.167969 -74.921875 "/></g></g></g><g clip-path="url(#ad72d00a3f)"><path fill="#ffffff" d="M 302.765625 320.425781 C 288.296875 320.425781 276.570312 308.695312 276.570312 294.230469 C 276.570312 279.761719 288.296875 268.035156 302.765625 268.035156 C 317.234375 268.035156 328.960938 279.761719 328.960938 294.230469 C 328.960938 308.695312 317.234375 320.425781 302.765625 320.425781 Z M 362.851562 281.980469 L 351.125 280.59375 C 350.0625 276.824219 348.5625 273.15625 346.605469 269.671875 L 353.914062 260.402344 C 355.132812 258.855469 355 256.640625 353.609375 255.25 L 341.746094 243.386719 C 340.355469 241.992188 338.140625 241.863281 336.59375 243.082031 L 327.320312 250.386719 C 323.835938 248.433594 320.167969 246.929688 316.402344 245.871094 L 315.015625 234.140625 C 314.78125 232.1875 313.125 230.714844 311.152344 230.714844 L 294.375 230.714844 C 292.40625 230.714844 290.75 232.1875 290.519531 234.140625 L 289.128906 245.871094 C 285.363281 246.929688 281.695312 248.433594 278.210938 250.386719 L 268.9375 243.082031 C 267.390625 241.863281 265.179688 241.992188 263.785156 243.386719 L 251.921875 255.25 C 250.53125 256.640625 250.398438 258.855469 251.617188 260.402344 L 258.925781 269.671875 C 256.972656 273.15625 255.464844 276.824219 254.410156 280.59375 L 242.679688 281.980469 C 240.722656 282.214844 239.25 283.871094 239.25 285.839844 L 239.25 302.617188 C 239.25 304.585938 240.722656 306.246094 242.679688 306.476562 L 254.410156 307.863281 C 255.464844 311.632812 256.972656 315.300781 258.925781 318.785156 L 251.617188 328.054688 C 250.398438 329.601562 250.53125 331.816406 251.921875 333.207031 L 263.785156 345.070312 C 265.179688 346.464844 267.390625 346.597656 268.9375 345.375 L 278.210938 338.070312 C 281.695312 340.023438 285.363281 341.527344 289.128906 342.585938 L 290.519531 354.3125 C 290.75 356.269531 292.40625 357.742188 294.375 357.742188 L 310.875 357.742188 C 312.808594 357.742188 314.449219 356.320312 314.722656 354.402344 L 316.402344 342.585938 C 320.167969 341.527344 323.835938 340.023438 327.320312 338.070312 L 336.59375 345.375 C 338.140625 346.597656 340.355469 346.464844 341.746094 345.070312 L 353.609375 333.207031 C 355 331.816406 355.132812 329.601562 353.914062 328.054688 L 346.605469 318.785156 C 348.5625 315.300781 350.0625 311.632812 351.125 307.863281 L 362.851562 306.476562 C 364.808594 306.246094 366.28125 304.585938 366.28125 302.617188 L 366.28125 285.839844 C 366.28125 283.871094 364.808594 282.214844 362.851562 281.980469 " fill-opacity="1" fill-rule="nonzero"/></g><path fill="#000000" d="M 333.253906 301.671875 L 332.046875 305.464844 C 328.855469 312.925781 323.476562 318.214844 315.90625 321.332031 C 308.292969 324.4375 300.1875 324.496094 291.59375 321.503906 C 283.484375 318.261719 277.625 313.050781 274.015625 305.871094 C 272.863281 303.554688 272.039062 301.132812 271.539062 298.605469 L 271.0625 294.777344 C 270.917969 292.191406 271.152344 289.582031 271.773438 286.953125 C 273.925781 278.945312 278.53125 272.957031 285.59375 268.988281 C 292.660156 265.023438 300.570312 263.980469 309.324219 265.859375 C 317.984375 268.148438 324.566406 272.660156 329.066406 279.398438 C 333.566406 286.132812 334.964844 293.558594 333.253906 301.671875 " fill-opacity="1" fill-rule="nonzero"/><g clip-path="url(#4fdef39953)"><path fill="#000000" d="M 368.015625 280.972656 L 353.28125 280.972656 C 352.054688 276.207031 350.191406 271.707031 347.683594 267.472656 L 358.109375 257.050781 C 358.3125 256.84375 358.46875 256.609375 358.578125 256.34375 C 358.691406 256.074219 358.746094 255.796875 358.746094 255.507812 C 358.746094 255.21875 358.691406 254.941406 358.578125 254.671875 C 358.46875 254.40625 358.3125 254.167969 358.109375 253.964844 L 342.6875 238.542969 C 342.480469 238.339844 342.246094 238.183594 341.980469 238.070312 C 341.710938 237.960938 341.433594 237.90625 341.144531 237.90625 C 340.855469 237.90625 340.578125 237.960938 340.308594 238.070312 C 340.042969 238.183594 339.804688 238.339844 339.601562 238.542969 L 329.179688 248.96875 C 324.945312 246.460938 320.445312 244.59375 315.679688 243.371094 L 315.679688 228.636719 C 315.679688 228.347656 315.625 228.066406 315.511719 227.800781 C 315.402344 227.535156 315.246094 227.296875 315.039062 227.09375 C 314.835938 226.886719 314.597656 226.730469 314.332031 226.621094 C 314.066406 226.507812 313.785156 226.453125 313.496094 226.453125 L 291.691406 226.453125 C 291.402344 226.453125 291.121094 226.507812 290.855469 226.621094 C 290.589844 226.730469 290.351562 226.886719 290.148438 227.09375 C 289.945312 227.296875 289.785156 227.535156 289.675781 227.800781 C 289.566406 228.066406 289.507812 228.347656 289.507812 228.636719 L 289.507812 243.371094 C 284.742188 244.59375 280.242188 246.460938 276.007812 248.96875 L 265.585938 238.542969 C 265.382812 238.339844 265.144531 238.183594 264.878906 238.070312 C 264.613281 237.960938 264.332031 237.90625 264.042969 237.90625 C 263.753906 237.90625 263.476562 237.960938 263.210938 238.070312 C 262.941406 238.183594 262.707031 238.339844 262.5 238.542969 L 247.082031 253.964844 C 246.875 254.167969 246.71875 254.40625 246.609375 254.671875 C 246.496094 254.941406 246.441406 255.21875 246.441406 255.507812 C 246.441406 255.796875 246.496094 256.074219 246.609375 256.34375 C 246.71875 256.609375 246.875 256.84375 247.082031 257.050781 L 257.503906 267.472656 C 254.996094 271.707031 253.132812 276.207031 251.90625 280.972656 L 237.171875 280.972656 C 236.882812 280.972656 236.605469 281.027344 236.335938 281.140625 C 236.070312 281.25 235.835938 281.40625 235.628906 281.613281 C 235.425781 281.816406 235.269531 282.050781 235.15625 282.320312 C 235.046875 282.585938 234.992188 282.863281 234.992188 283.152344 L 234.992188 304.960938 C 234.992188 305.25 235.046875 305.527344 235.15625 305.796875 C 235.269531 306.0625 235.425781 306.296875 235.628906 306.503906 C 235.835938 306.707031 236.070312 306.863281 236.335938 306.976562 C 236.605469 307.085938 236.882812 307.140625 237.171875 307.140625 L 251.90625 307.140625 C 253.132812 311.90625 254.996094 316.410156 257.503906 320.644531 L 247.082031 331.0625 C 246.875 331.269531 246.71875 331.503906 246.609375 331.773438 C 246.496094 332.039062 246.441406 332.316406 246.441406 332.605469 C 246.441406 332.898438 246.496094 333.175781 246.609375 333.441406 C 246.71875 333.710938 246.875 333.945312 247.082031 334.148438 L 262.5 349.570312 C 262.707031 349.773438 262.941406 349.933594 263.210938 350.042969 C 263.476562 350.152344 263.753906 350.207031 264.042969 350.207031 C 264.332031 350.207031 264.613281 350.152344 264.878906 350.042969 C 265.144531 349.933594 265.382812 349.773438 265.585938 349.570312 L 276.007812 339.148438 C 280.242188 341.652344 284.742188 343.519531 289.507812 344.742188 L 289.507812 359.480469 C 289.507812 359.769531 289.566406 360.046875 289.675781 360.3125 C 289.785156 360.582031 289.945312 360.816406 290.148438 361.019531 C 290.351562 361.226562 290.589844 361.382812 290.855469 361.492188 C 291.121094 361.605469 291.402344 361.660156 291.691406 361.660156 L 313.496094 361.660156 C 313.785156 361.660156 314.066406 361.605469 314.332031 361.492188 C 314.597656 361.382812 314.835938 361.226562 315.039062 361.019531 C 315.246094 360.816406 315.402344 360.582031 315.511719 360.3125 C 315.625 360.046875 315.679688 359.769531 315.679688 359.480469 L 315.679688 344.742188 C 320.445312 343.519531 324.945312 341.652344 329.179688 339.148438 L 339.601562 349.570312 C 339.804688 349.773438 340.042969 349.933594 340.308594 350.042969 C 340.578125 350.152344 340.855469 350.207031 341.144531 350.207031 C 341.433594 350.207031 341.710938 350.152344 341.980469 350.042969 C 342.246094 349.933594 342.480469 349.773438 342.6875 349.570312 L 358.109375 334.148438 C 358.3125 333.945312 358.46875 333.710938 358.578125 333.441406 C 358.691406 333.175781 358.746094 332.894531 358.746094 332.605469 C 358.746094 332.316406 358.691406 332.039062 358.578125 331.773438 C 358.46875 331.503906 358.3125 331.269531 358.109375 331.0625 L 347.683594 320.644531 C 350.191406 316.410156 352.054688 311.90625 353.28125 307.140625 L 368.015625 307.140625 C 368.304688 307.140625 368.582031 307.085938 368.851562 306.976562 C 369.117188 306.863281 369.355469 306.707031 369.558594 306.503906 C 369.761719 306.296875 369.921875 306.0625 370.03125 305.796875 C 370.140625 305.527344 370.195312 305.25 370.195312 304.960938 L 370.195312 283.152344 C 370.195312 282.863281 370.140625 282.585938 370.03125 282.320312 C 369.921875 282.050781 369.761719 281.816406 369.558594 281.613281 C 369.355469 281.40625 369.117188 281.25 368.851562 281.140625 C 368.582031 281.027344 368.304688 280.972656 368.015625 280.972656 Z M 365.835938 302.78125 L 351.558594 302.78125 C 351.3125 302.78125 351.070312 302.820312 350.835938 302.902344 C 350.601562 302.984375 350.386719 303.105469 350.195312 303.261719 C 350 303.414062 349.839844 303.597656 349.707031 303.808594 C 349.578125 304.019531 349.484375 304.246094 349.429688 304.488281 C 348.21875 309.964844 346.105469 315.070312 343.085938 319.796875 C 342.953125 320.007812 342.859375 320.234375 342.800781 320.472656 C 342.746094 320.714844 342.730469 320.960938 342.757812 321.207031 C 342.785156 321.453125 342.851562 321.6875 342.960938 321.914062 C 343.066406 322.136719 343.207031 322.335938 343.382812 322.511719 L 353.480469 332.605469 L 341.144531 344.945312 L 331.046875 334.847656 C 330.871094 334.671875 330.671875 334.53125 330.449219 334.421875 C 330.226562 334.316406 329.988281 334.25 329.742188 334.222656 C 329.496094 334.195312 329.253906 334.210938 329.011719 334.265625 C 328.769531 334.324219 328.542969 334.417969 328.335938 334.550781 C 323.605469 337.566406 318.503906 339.683594 313.027344 340.894531 C 312.785156 340.949219 312.558594 341.039062 312.347656 341.171875 C 312.136719 341.300781 311.953125 341.464844 311.796875 341.65625 C 311.640625 341.851562 311.523438 342.066406 311.441406 342.300781 C 311.359375 342.535156 311.316406 342.773438 311.316406 343.023438 L 311.316406 357.296875 L 293.871094 357.296875 L 293.871094 343.023438 C 293.871094 342.773438 293.828125 342.535156 293.746094 342.300781 C 293.664062 342.066406 293.546875 341.851562 293.390625 341.65625 C 293.234375 341.464844 293.050781 341.300781 292.839844 341.171875 C 292.628906 341.039062 292.402344 340.949219 292.160156 340.894531 C 286.683594 339.683594 281.582031 337.566406 276.851562 334.550781 C 276.644531 334.417969 276.417969 334.320312 276.175781 334.265625 C 275.933594 334.207031 275.691406 334.195312 275.445312 334.222656 C 275.199219 334.25 274.960938 334.316406 274.738281 334.421875 C 274.515625 334.53125 274.316406 334.671875 274.140625 334.847656 L 264.042969 344.945312 L 251.707031 332.605469 L 261.804688 322.511719 C 261.980469 322.335938 262.121094 322.136719 262.226562 321.914062 C 262.335938 321.6875 262.402344 321.453125 262.429688 321.207031 C 262.457031 320.960938 262.441406 320.714844 262.386719 320.472656 C 262.328125 320.234375 262.234375 320.007812 262.101562 319.796875 C 259.085938 315.070312 256.96875 309.964844 255.757812 304.488281 C 255.703125 304.246094 255.609375 304.019531 255.480469 303.808594 C 255.347656 303.597656 255.1875 303.414062 254.992188 303.261719 C 254.800781 303.105469 254.585938 302.984375 254.351562 302.902344 C 254.117188 302.820312 253.875 302.78125 253.628906 302.78125 L 239.351562 302.78125 L 239.351562 285.335938 L 253.628906 285.335938 C 253.875 285.335938 254.117188 285.292969 254.351562 285.210938 C 254.585938 285.128906 254.800781 285.007812 254.992188 284.855469 C 255.1875 284.699219 255.347656 284.515625 255.480469 284.304688 C 255.609375 284.09375 255.703125 283.867188 255.757812 283.625 C 256.96875 278.148438 259.085938 273.046875 262.101562 268.316406 C 262.234375 268.105469 262.328125 267.882812 262.386719 267.640625 C 262.441406 267.398438 262.457031 267.15625 262.429688 266.90625 C 262.402344 266.660156 262.335938 266.425781 262.226562 266.203125 C 262.121094 265.980469 261.980469 265.777344 261.804688 265.605469 L 251.707031 255.507812 L 264.042969 243.167969 L 274.140625 253.265625 C 274.316406 253.441406 274.515625 253.585938 274.738281 253.691406 C 274.960938 253.800781 275.199219 253.867188 275.445312 253.894531 C 275.691406 253.921875 275.933594 253.90625 276.175781 253.847656 C 276.417969 253.792969 276.644531 253.699219 276.851562 253.5625 C 281.582031 250.546875 286.683594 248.433594 292.160156 247.21875 C 292.402344 247.167969 292.628906 247.074219 292.839844 246.945312 C 293.050781 246.8125 293.234375 246.648438 293.390625 246.457031 C 293.546875 246.261719 293.664062 246.050781 293.746094 245.816406 C 293.828125 245.582031 293.871094 245.339844 293.871094 245.089844 L 293.871094 230.816406 L 311.316406 230.816406 L 311.316406 245.089844 C 311.316406 245.339844 311.359375 245.582031 311.441406 245.816406 C 311.523438 246.050781 311.640625 246.261719 311.796875 246.457031 C 311.953125 246.648438 312.136719 246.8125 312.347656 246.945312 C 312.558594 247.074219 312.785156 247.167969 313.027344 247.21875 C 318.503906 248.433594 323.605469 250.546875 328.335938 253.5625 C 328.542969 253.699219 328.769531 253.792969 329.011719 253.847656 C 329.253906 253.90625 329.496094 253.921875 329.742188 253.894531 C 329.988281 253.867188 330.226562 253.800781 330.449219 253.691406 C 330.671875 253.585938 330.871094 253.441406 331.046875 253.265625 L 341.144531 243.167969 L 353.480469 255.507812 L 343.382812 265.605469 C 343.207031 265.777344 343.066406 265.980469 342.960938 266.203125 C 342.851562 266.425781 342.785156 266.660156 342.757812 266.90625 C 342.730469 267.15625 342.746094 267.398438 342.800781 267.640625 C 342.859375 267.882812 342.953125 268.105469 343.085938 268.316406 C 346.105469 273.046875 348.21875 278.148438 349.429688 283.625 C 349.484375 283.867188 349.578125 284.09375 349.707031 284.304688 C 349.839844 284.515625 350 284.699219 350.195312 284.855469 C 350.386719 285.007812 350.601562 285.128906 350.835938 285.210938 C 351.070312 285.292969 351.3125 285.335938 351.558594 285.335938 L 365.835938 285.335938 Z M 365.835938 302.78125 " fill-opacity="1" fill-rule="nonzero"/></g><path fill="#000000" d="M 302.59375 252.625 C 279.746094 252.625 261.160156 271.210938 261.160156 294.058594 C 261.160156 316.902344 279.746094 335.492188 302.59375 335.492188 C 325.441406 335.492188 344.027344 316.902344 344.027344 294.058594 C 344.027344 271.210938 325.441406 252.625 302.59375 252.625 Z M 302.59375 331.128906 C 282.152344 331.128906 265.519531 314.5 265.519531 294.058594 C 265.519531 273.617188 282.152344 256.984375 302.59375 256.984375 C 323.035156 256.984375 339.667969 273.617188 339.667969 294.058594 C 339.667969 314.5 323.035156 331.128906 302.59375 331.128906 Z M 302.59375 331.128906 " fill-opacity="1" fill-rule="nonzero"/><path fill="#000000" d="M 302.59375 261.347656 C 301.523438 261.347656 300.453125 261.398438 299.386719 261.503906 C 298.320312 261.609375 297.261719 261.765625 296.210938 261.976562 C 295.160156 262.183594 294.125 262.445312 293.097656 262.753906 C 292.074219 263.066406 291.066406 263.425781 290.074219 263.835938 C 289.085938 264.246094 288.117188 264.703125 287.175781 265.207031 C 286.230469 265.714844 285.3125 266.265625 284.421875 266.859375 C 283.53125 267.453125 282.671875 268.089844 281.84375 268.769531 C 281.015625 269.449219 280.222656 270.167969 279.464844 270.925781 C 278.707031 271.683594 277.988281 272.476562 277.308594 273.304688 C 276.628906 274.132812 275.992188 274.992188 275.394531 275.882812 C 274.800781 276.773438 274.25 277.691406 273.746094 278.636719 C 273.242188 279.582031 272.78125 280.550781 272.371094 281.539062 C 271.964844 282.527344 271.601562 283.535156 271.292969 284.5625 C 270.980469 285.585938 270.71875 286.625 270.511719 287.675781 C 270.300781 288.726562 270.144531 289.785156 270.039062 290.851562 C 269.933594 291.917969 269.882812 292.984375 269.882812 294.058594 C 269.882812 295.128906 269.933594 296.199219 270.039062 297.261719 C 270.144531 298.328125 270.300781 299.386719 270.511719 300.4375 C 270.71875 301.488281 270.980469 302.527344 271.292969 303.554688 C 271.601562 304.578125 271.964844 305.585938 272.371094 306.574219 C 272.78125 307.566406 273.242188 308.53125 273.746094 309.476562 C 274.25 310.421875 274.800781 311.339844 275.394531 312.230469 C 275.992188 313.121094 276.628906 313.980469 277.308594 314.808594 C 277.988281 315.636719 278.707031 316.429688 279.464844 317.1875 C 280.222656 317.945312 281.015625 318.664062 281.84375 319.34375 C 282.671875 320.023438 283.53125 320.660156 284.421875 321.253906 C 285.3125 321.851562 286.230469 322.402344 287.175781 322.90625 C 288.117188 323.410156 289.085938 323.867188 290.074219 324.277344 C 291.066406 324.6875 292.074219 325.046875 293.097656 325.359375 C 294.125 325.671875 295.160156 325.929688 296.210938 326.140625 C 297.261719 326.347656 298.320312 326.503906 299.386719 326.609375 C 300.453125 326.714844 301.523438 326.769531 302.59375 326.769531 C 303.664062 326.769531 304.734375 326.714844 305.800781 326.609375 C 306.867188 326.503906 307.925781 326.347656 308.976562 326.140625 C 310.027344 325.929688 311.0625 325.671875 312.089844 325.359375 C 313.113281 325.046875 314.121094 324.6875 315.113281 324.277344 C 316.101562 323.867188 317.070312 323.410156 318.015625 322.90625 C 318.957031 322.402344 319.875 321.851562 320.765625 321.253906 C 321.65625 320.660156 322.515625 320.023438 323.34375 319.34375 C 324.175781 318.664062 324.964844 317.945312 325.722656 317.1875 C 326.480469 316.429688 327.199219 315.636719 327.878906 314.808594 C 328.558594 313.980469 329.195312 313.121094 329.792969 312.230469 C 330.386719 311.339844 330.9375 310.421875 331.441406 309.476562 C 331.949219 308.53125 332.40625 307.566406 332.816406 306.574219 C 333.226562 305.585938 333.585938 304.578125 333.898438 303.554688 C 334.207031 302.527344 334.46875 301.488281 334.675781 300.4375 C 334.886719 299.386719 335.042969 298.328125 335.148438 297.261719 C 335.253906 296.199219 335.304688 295.128906 335.304688 294.058594 C 335.304688 292.984375 335.25 291.917969 335.144531 290.851562 C 335.039062 289.785156 334.878906 288.726562 334.671875 287.679688 C 334.460938 286.628906 334.199219 285.589844 333.886719 284.566406 C 333.578125 283.542969 333.214844 282.535156 332.804688 281.546875 C 332.394531 280.554688 331.9375 279.589844 331.433594 278.644531 C 330.925781 277.699219 330.375 276.78125 329.78125 275.894531 C 329.1875 275.003906 328.546875 274.144531 327.867188 273.316406 C 327.1875 272.488281 326.472656 271.695312 325.714844 270.9375 C 324.957031 270.179688 324.164062 269.460938 323.335938 268.78125 C 322.507812 268.101562 321.648438 267.464844 320.757812 266.871094 C 319.867188 266.273438 318.949219 265.726562 318.007812 265.21875 C 317.0625 264.714844 316.09375 264.257812 315.105469 263.847656 C 314.117188 263.4375 313.109375 263.074219 312.085938 262.761719 C 311.0625 262.453125 310.023438 262.191406 308.972656 261.980469 C 307.921875 261.769531 306.863281 261.613281 305.800781 261.507812 C 304.734375 261.402344 303.664062 261.347656 302.59375 261.347656 Z M 302.59375 322.40625 C 301.664062 322.40625 300.738281 322.363281 299.816406 322.269531 C 298.890625 322.179688 297.972656 322.042969 297.0625 321.863281 C 296.152344 321.679688 295.253906 321.457031 294.363281 321.1875 C 293.476562 320.917969 292.601562 320.605469 291.746094 320.25 C 290.886719 319.894531 290.050781 319.496094 289.230469 319.058594 C 288.410156 318.621094 287.617188 318.144531 286.84375 317.628906 C 286.070312 317.113281 285.328125 316.5625 284.609375 315.972656 C 283.890625 315.382812 283.203125 314.761719 282.546875 314.101562 C 281.890625 313.445312 281.269531 312.761719 280.679688 312.042969 C 280.089844 311.324219 279.539062 310.578125 279.023438 309.808594 C 278.507812 309.035156 278.03125 308.238281 277.59375 307.421875 C 277.152344 306.601562 276.757812 305.765625 276.402344 304.90625 C 276.046875 304.046875 275.734375 303.175781 275.464844 302.285156 C 275.195312 301.398438 274.96875 300.5 274.789062 299.589844 C 274.609375 298.675781 274.472656 297.761719 274.382812 296.835938 C 274.289062 295.910156 274.246094 294.984375 274.246094 294.058594 C 274.246094 293.128906 274.289062 292.203125 274.382812 291.277344 C 274.472656 290.355469 274.609375 289.4375 274.789062 288.527344 C 274.96875 287.617188 275.195312 286.714844 275.464844 285.828125 C 275.734375 284.9375 276.046875 284.066406 276.402344 283.207031 C 276.757812 282.351562 277.152344 281.511719 277.59375 280.691406 C 278.03125 279.875 278.507812 279.078125 279.023438 278.308594 C 279.539062 277.535156 280.089844 276.789062 280.679688 276.074219 C 281.269531 275.355469 281.890625 274.667969 282.546875 274.011719 C 283.203125 273.355469 283.890625 272.730469 284.609375 272.144531 C 285.328125 271.554688 286.070312 271 286.84375 270.484375 C 287.617188 269.96875 288.410156 269.492188 289.230469 269.054688 C 290.050781 268.617188 290.886719 268.222656 291.746094 267.867188 C 292.601562 267.511719 293.476562 267.199219 294.363281 266.929688 C 295.253906 266.660156 296.152344 266.433594 297.0625 266.253906 C 297.972656 266.070312 298.890625 265.933594 299.816406 265.84375 C 300.738281 265.753906 301.664062 265.707031 302.59375 265.707031 C 303.523438 265.707031 304.449219 265.753906 305.371094 265.84375 C 306.296875 265.933594 307.214844 266.070312 308.125 266.253906 C 309.035156 266.433594 309.933594 266.660156 310.824219 266.929688 C 311.710938 267.199219 312.585938 267.511719 313.441406 267.867188 C 314.300781 268.222656 315.140625 268.617188 315.957031 269.054688 C 316.777344 269.492188 317.570312 269.96875 318.34375 270.484375 C 319.117188 271 319.859375 271.554688 320.578125 272.144531 C 321.296875 272.730469 321.984375 273.355469 322.640625 274.011719 C 323.296875 274.667969 323.917969 275.355469 324.507812 276.074219 C 325.097656 276.789062 325.648438 277.535156 326.164062 278.308594 C 326.683594 279.078125 327.160156 279.875 327.597656 280.691406 C 328.035156 281.511719 328.429688 282.351562 328.785156 283.207031 C 329.140625 284.066406 329.453125 284.9375 329.722656 285.828125 C 329.992188 286.714844 330.21875 287.617188 330.398438 288.527344 C 330.578125 289.4375 330.714844 290.355469 330.808594 291.277344 C 330.898438 292.203125 330.945312 293.128906 330.945312 294.058594 C 330.941406 294.984375 330.894531 295.910156 330.804688 296.835938 C 330.710938 297.757812 330.574219 298.675781 330.394531 299.585938 C 330.210938 300.496094 329.984375 301.394531 329.714844 302.28125 C 329.445312 303.171875 329.132812 304.042969 328.777344 304.902344 C 328.421875 305.757812 328.023438 306.597656 327.585938 307.414062 C 327.148438 308.234375 326.671875 309.027344 326.15625 309.800781 C 325.640625 310.570312 325.085938 311.316406 324.5 312.035156 C 323.910156 312.75 323.289062 313.4375 322.628906 314.09375 C 321.972656 314.75 321.289062 315.371094 320.570312 315.960938 C 319.851562 316.550781 319.109375 317.101562 318.335938 317.621094 C 317.566406 318.136719 316.769531 318.613281 315.953125 319.050781 C 315.132812 319.488281 314.296875 319.882812 313.4375 320.242188 C 312.582031 320.597656 311.707031 320.910156 310.820312 321.179688 C 309.933594 321.449219 309.03125 321.675781 308.121094 321.855469 C 307.210938 322.039062 306.296875 322.175781 305.371094 322.265625 C 304.449219 322.359375 303.523438 322.40625 302.59375 322.40625 Z M 302.59375 322.40625 " fill-opacity="1" fill-rule="nonzero"/><g fill="#ffffff" fill-opacity="1"><g transform="translate(28.665944, 288.634098)"><g><path d="M 63.136719 -120.949219 L 89.457031 -121.710938 L 87.933594 -11.410156 L 82.304688 -0.609375 L 14.910156 -0.152344 L 4.867188 -5.933594 L 3.042969 -122.167969 L 29.210938 -122.167969 L 34.992188 -116.839844 L 36.816406 -29.058594 L 56.746094 -27.6875 L 57.660156 -115.167969 Z M 63.136719 -120.949219 "/></g></g></g><g fill="#1e1e1e" fill-opacity="1"><g transform="translate(21.941943, 281.910098)"><g><path d="M 63.054688 -123.800781 L 92.351562 -124.648438 L 90.777344 -10.691406 L 84.042969 2.234375 L 14.15625 2.707031 L 2.042969 -4.269531 L 0.144531 -125.019531 L 30.324219 -125.019531 L 37.820312 -118.117188 L 39.667969 -29.117188 L 36.816406 -29.058594 L 37.011719 -31.902344 L 56.941406 -30.535156 L 56.746094 -27.6875 L 53.894531 -27.71875 L 54.820312 -116.316406 L 61.875 -123.765625 Z M 63.21875 -118.097656 L 63.136719 -120.949219 L 65.207031 -118.988281 L 59.730469 -113.207031 L 57.660156 -115.167969 L 60.511719 -115.136719 L 59.566406 -24.636719 L 34.019531 -26.390625 L 32.140625 -116.78125 L 34.992188 -116.839844 L 33.058594 -114.742188 L 27.277344 -120.066406 L 29.210938 -122.167969 L 29.210938 -119.3125 L 3.042969 -119.3125 L 3.042969 -122.167969 L 5.894531 -122.210938 L 7.722656 -5.976562 L 4.867188 -5.933594 L 6.292969 -8.40625 L 16.332031 -2.625 L 14.910156 -0.152344 L 14.890625 -3.003906 L 82.285156 -3.460938 L 82.304688 -0.609375 L 79.777344 -1.925781 L 85.40625 -12.730469 L 87.933594 -11.410156 L 85.082031 -11.449219 L 86.605469 -121.75 L 89.457031 -121.710938 L 89.539062 -118.859375 Z M 63.21875 -118.097656 "/></g></g></g><g fill="#72a9be" fill-opacity="1"><g transform="translate(11.880438, 157.512697)"><g><path d="M 90.175781 -77.582031 L 98.402344 -59.949219 L 97.226562 -10.074219 L 86.648438 -0.671875 L 9.738281 0 L 3.359375 -13.265625 L 6.550781 -45.84375 L 35.433594 -45.675781 L 37.78125 -30.730469 L 63.476562 -31.234375 L 64.316406 -52.390625 L 12.425781 -58.269531 L 4.871094 -66.832031 L 5.710938 -123.089844 L 12.257812 -130.980469 L 73.886719 -134.171875 L 95.546875 -127.957031 L 97.058594 -96.21875 L 90.847656 -90.847656 L 67.335938 -89.671875 L 63.140625 -103.273438 L 40.804688 -101.425781 L 38.957031 -82.113281 Z M 90.175781 -77.582031 "/></g></g></g><g fill="#1e1e1e" fill-opacity="1"><g transform="translate(4.458739, 150.090999)"><g><path d="M 93.027344 -78.914062 L 101.570312 -60.613281 L 100.34375 -8.632812 L 87.855469 2.464844 L 7.769531 3.167969 L 0.140625 -12.695312 L 3.695312 -49.007812 L 38.125 -48.808594 L 40.894531 -31.21875 L 37.78125 -30.730469 L 37.722656 -33.878906 L 63.414062 -34.382812 L 63.476562 -31.234375 L 60.328125 -31.359375 L 61.167969 -52.515625 L 64.316406 -52.390625 L 63.960938 -49.261719 L 10.867188 -55.277344 L 1.703125 -65.664062 L 2.578125 -124.246094 L 10.71875 -134.054688 L 74.25 -137.34375 L 98.585938 -130.363281 L 100.277344 -94.839844 L 92.085938 -87.757812 L 65.050781 -86.402344 L 60.128906 -102.34375 L 63.140625 -103.273438 L 63.398438 -100.136719 L 41.066406 -98.289062 L 40.804688 -101.425781 L 43.941406 -101.125 L 42.09375 -81.816406 L 38.957031 -82.113281 L 39.234375 -85.25 L 92.261719 -80.558594 Z M 87.320312 -76.25 L 90.175781 -77.582031 L 89.898438 -74.445312 L 35.523438 -79.257812 L 37.921875 -104.347656 L 65.402344 -106.621094 L 70.347656 -90.601562 L 67.335938 -89.671875 L 67.179688 -92.816406 L 90.6875 -93.992188 L 90.847656 -90.847656 L 88.785156 -93.226562 L 95 -98.601562 L 97.058594 -96.21875 L 93.914062 -96.070312 L 92.402344 -127.808594 L 95.546875 -127.957031 L 94.679688 -124.929688 L 73.019531 -131.144531 L 73.886719 -134.171875 L 74.050781 -131.027344 L 12.421875 -127.835938 L 12.257812 -130.980469 L 14.679688 -128.96875 L 8.132812 -121.078125 L 5.710938 -123.089844 L 8.859375 -123.039062 L 8.019531 -66.785156 L 4.871094 -66.832031 L 7.230469 -68.917969 L 14.789062 -60.351562 L 12.425781 -58.269531 L 12.78125 -61.398438 L 67.578125 -55.191406 L 66.503906 -28.144531 L 35.097656 -27.527344 L 32.320312 -45.1875 L 35.433594 -45.675781 L 35.414062 -42.527344 L 6.53125 -42.695312 L 6.550781 -45.84375 L 9.683594 -45.535156 L 6.492188 -12.960938 L 3.359375 -13.265625 L 6.195312 -14.628906 L 12.578125 -1.363281 L 9.738281 0 L 9.710938 -3.148438 L 86.621094 -3.820312 L 86.648438 -0.671875 L 84.554688 -3.023438 L 95.136719 -12.429688 L 97.226562 -10.074219 L 94.078125 -10.148438 L 95.253906 -60.023438 L 98.402344 -59.949219 L 95.550781 -58.617188 Z M 87.320312 -76.25 "/></g></g></g><g fill="#fbfbfb" fill-opacity="1"><g transform="translate(126.279488, 267.550392)"><g><path d="M 45.652344 -28.988281 L 67.480469 -27.460938 L 68.070312 -8.683594 L 63.726562 -0.234375 L 10.796875 0.117188 L 2.933594 -4.109375 L 2.347656 -86.144531 L 5.867188 -93.886719 L 62.199219 -93.183594 L 69.242188 -86.964844 L 67.601562 -61.613281 L 45.417969 -61.613281 L 43.421875 -74.875 L 26.992188 -75.582031 L 28.050781 -17.371094 L 43.65625 -16.195312 Z M 45.652344 -28.988281 "/></g></g></g><g fill="#1e1e1e" fill-opacity="1"><g transform="translate(121.092522, 262.363423)"><g><path d="M 45.808594 -31.183594 L 69.621094 -29.519531 L 70.285156 -8.183594 L 65.074219 1.957031 L 10.25 2.320312 L 0.742188 -2.785156 L 0.144531 -86.613281 L 4.460938 -96.105469 L 63.046875 -95.375 L 71.507812 -87.898438 L 69.664062 -59.414062 L 43.523438 -59.414062 L 41.246094 -74.546875 L 43.421875 -74.875 L 43.328125 -72.675781 L 26.898438 -73.382812 L 26.992188 -75.582031 L 29.191406 -75.621094 L 30.25 -17.410156 L 28.050781 -17.371094 L 28.214844 -19.5625 L 43.824219 -18.390625 L 43.65625 -16.195312 L 41.484375 -16.535156 L 43.789062 -31.324219 Z M 45.5 -26.792969 L 45.652344 -28.988281 L 47.828125 -28.648438 L 45.519531 -13.847656 L 25.886719 -15.324219 L 24.75 -77.878906 L 45.328125 -76.996094 L 47.59375 -61.941406 L 45.417969 -61.613281 L 45.417969 -63.816406 L 67.601562 -63.816406 L 67.601562 -61.613281 L 65.402344 -61.757812 L 67.046875 -87.105469 L 69.242188 -86.964844 L 67.785156 -85.316406 L 60.746094 -91.535156 L 62.199219 -93.183594 L 62.171875 -90.984375 L 5.839844 -91.6875 L 5.867188 -93.886719 L 7.871094 -92.976562 L 4.351562 -85.230469 L 2.347656 -86.144531 L 4.546875 -86.160156 L 5.132812 -4.125 L 2.933594 -4.109375 L 3.976562 -6.046875 L 11.839844 -1.820312 L 10.796875 0.117188 L 10.78125 -2.082031 L 63.710938 -2.433594 L 63.726562 -0.234375 L 61.769531 -1.242188 L 66.113281 -9.691406 L 68.070312 -8.683594 L 65.871094 -8.617188 L 65.28125 -27.394531 L 67.480469 -27.460938 L 67.328125 -25.265625 Z M 45.5 -26.792969 "/></g></g></g><g fill="#d33a02" fill-opacity="1"><g transform="translate(111.188904, 162.281982)"><g><path d="M 54.898438 -112.460938 L 84.871094 -110.078125 L 81.648438 -0.140625 L 51.957031 -1.539062 L 53.078125 -43.277344 L 33.613281 -43.976562 L 32.070312 -2.378906 L 2.800781 -0.558594 L 3.640625 -112.179688 L 36.132812 -112.179688 L 34.59375 -70.304688 L 53.777344 -69.605469 Z M 54.898438 -112.460938 "/></g></g></g><g fill="#1e1e1e" fill-opacity="1"><g transform="translate(104.999126, 156.092206)"><g><path d="M 55.109375 -115.078125 L 87.570312 -112.5 L 84.195312 2.609375 L 49.265625 0.960938 L 50.453125 -43.347656 L 53.078125 -43.277344 L 52.984375 -40.652344 L 33.519531 -41.351562 L 33.613281 -43.976562 L 36.234375 -43.878906 L 34.609375 0.09375 L 0.152344 2.234375 L 1.035156 -114.804688 L 38.855469 -114.804688 L 37.214844 -70.207031 L 34.59375 -70.304688 L 34.6875 -72.929688 L 53.875 -72.230469 L 53.777344 -69.605469 L 51.152344 -69.671875 L 52.347656 -115.296875 Z M 54.691406 -109.84375 L 54.898438 -112.460938 L 57.523438 -112.390625 L 56.335938 -66.882812 L 31.871094 -67.777344 L 33.507812 -112.277344 L 36.132812 -112.179688 L 36.132812 -109.554688 L 3.640625 -109.554688 L 3.640625 -112.179688 L 6.265625 -112.160156 L 5.425781 -0.539062 L 2.800781 -0.558594 L 2.636719 -3.179688 L 31.910156 -5 L 32.070312 -2.378906 L 29.445312 -2.476562 L 31.085938 -46.695312 L 55.773438 -45.804688 L 54.582031 -1.46875 L 51.957031 -1.539062 L 52.082031 -4.164062 L 81.773438 -2.761719 L 81.648438 -0.140625 L 79.023438 -0.21875 L 82.246094 -110.15625 L 84.871094 -110.078125 L 84.664062 -107.460938 Z M 54.691406 -109.84375 "/></g></g></g><g fill="#fbfbfb" fill-opacity="1"><g transform="translate(127.982091, 340.047487)"><g><path d="M 9.382812 -60.082031 L 66.105469 -58.960938 L 66.105469 -37.671875 L 8.402344 -38.234375 Z M 9.382812 -60.082031 "/></g></g></g><g fill="#1e1e1e" fill-opacity="1"><g transform="translate(121.792314, 333.857717)"><g><path d="M 9.433594 -62.707031 L 68.730469 -61.535156 L 68.730469 -35.023438 L 5.65625 -35.632812 L 6.875 -62.757812 Z M 9.332031 -57.457031 L 9.382812 -60.082031 L 12.007812 -59.964844 L 11.027344 -38.117188 L 8.402344 -38.234375 L 8.429688 -40.859375 L 66.128906 -40.300781 L 66.105469 -37.671875 L 63.476562 -37.671875 L 63.476562 -58.960938 L 66.105469 -58.960938 L 66.050781 -56.335938 Z M 9.332031 -57.457031 "/></g></g></g><g fill="#0070c0" fill-opacity="1"><g transform="translate(198.881943, 152.607773)"><g><path d="M 81.648438 -101.957031 L 81.789062 -35.992188 L 75.90625 -29.128906 L 32.492188 -27.730469 L 31.230469 -1.960938 L 2.800781 0.421875 L 2.800781 -111.621094 L 76.1875 -107.417969 Z M 52.378906 -85.289062 L 33.890625 -87.109375 L 33.191406 -52.9375 L 52.238281 -54.339844 Z M 52.378906 -85.289062 "/></g></g></g><g fill="#1e1e1e" fill-opacity="1"><g transform="translate(192.692173, 146.417997)"><g><path d="M 84.273438 -101.960938 L 84.417969 -35.023438 L 77.148438 -26.542969 L 32.578125 -25.105469 L 32.492188 -27.730469 L 35.113281 -27.601562 L 33.742188 0.464844 L 0.175781 3.273438 L 0.175781 -114.402344 L 77.335938 -109.984375 L 84.273438 -103.046875 Z M 79.023438 -101.949219 L 81.648438 -101.957031 L 79.792969 -100.097656 L 74.332031 -105.5625 L 76.1875 -107.417969 L 76.035156 -104.796875 L 2.652344 -108.996094 L 2.800781 -111.621094 L 5.425781 -111.621094 L 5.425781 0.421875 L 2.800781 0.421875 L 2.582031 -2.195312 L 31.011719 -4.578125 L 31.230469 -1.960938 L 28.609375 -2.089844 L 29.988281 -30.277344 L 75.824219 -31.753906 L 75.90625 -29.128906 L 73.914062 -30.839844 L 79.796875 -37.703125 L 81.789062 -35.992188 L 79.164062 -35.988281 Z M 52.121094 -82.675781 L 33.632812 -84.496094 L 33.890625 -87.109375 L 36.519531 -87.058594 L 35.816406 -52.886719 L 33.191406 -52.9375 L 33 -55.558594 L 52.046875 -56.957031 L 52.238281 -54.339844 L 49.613281 -54.351562 L 49.753906 -85.300781 L 52.378906 -85.289062 Z M 55.015625 -87.667969 L 54.855469 -51.898438 L 30.507812 -50.109375 L 31.324219 -90.003906 L 52.636719 -87.902344 Z M 55.015625 -87.667969 "/></g></g></g><g fill="#fd652f" fill-opacity="1"><g transform="translate(283.898424, 180.174041)"><g><path d="M 73.714844 -27.0625 L 75.359375 -0.300781 L 2.992188 -0.300781 L 2.992188 -119.914062 L 72.964844 -117.671875 L 72.070312 -90.308594 L 33.640625 -90.757812 L 33.640625 -75.804688 L 58.460938 -74.3125 L 58.460938 -48.292969 L 33.492188 -49.789062 L 33.34375 -29.304688 Z M 73.714844 -27.0625 "/></g></g></g><g fill="#1e1e1e" fill-opacity="1"><g transform="translate(277.290133, 173.565745)"><g><path d="M 76.511719 -27.234375 L 78.339844 2.503906 L 0.1875 2.503906 L 0.1875 -122.808594 L 75.859375 -120.382812 L 74.78125 -87.472656 L 33.609375 -87.953125 L 33.640625 -90.757812 L 36.445312 -90.757812 L 36.445312 -75.804688 L 33.640625 -75.804688 L 33.808594 -78.605469 L 61.265625 -76.949219 L 61.265625 -45.316406 L 33.324219 -46.992188 L 33.492188 -49.789062 L 36.296875 -49.769531 L 36.144531 -29.285156 L 33.34375 -29.304688 L 33.5 -32.105469 L 76.359375 -29.722656 Z M 70.914062 -26.890625 L 73.714844 -27.0625 L 73.558594 -24.265625 L 30.519531 -26.65625 L 30.710938 -52.765625 L 58.628906 -51.09375 L 58.460938 -48.292969 L 55.660156 -48.292969 L 55.660156 -74.3125 L 58.460938 -74.3125 L 58.292969 -71.511719 L 30.839844 -73.167969 L 30.839844 -93.59375 L 72.101562 -93.113281 L 72.070312 -90.308594 L 69.265625 -90.402344 L 70.164062 -117.765625 L 72.964844 -117.671875 L 72.875 -114.871094 L 2.902344 -117.113281 L 2.992188 -119.914062 L 5.792969 -119.914062 L 5.792969 -0.300781 L 2.992188 -0.300781 L 2.992188 -3.101562 L 75.359375 -3.101562 L 75.359375 -0.300781 L 72.558594 -0.128906 Z M 70.914062 -26.890625 "/></g></g></g><g fill="#f2ac02" fill-opacity="1"><g transform="translate(272.676975, 303.009385)"><g><path d="M 33.828125 -20.140625 L 30.175781 -10.804688 L 26.988281 -8.492188 L 27.691406 -4.226562 L 23.78125 5.902344 L 20.742188 7.957031 L 3.8125 1.4375 L 2.292969 -2.425781 L 5.878906 -12.988281 L 9.066406 -15.429688 L 8.109375 -18.90625 L 11.453125 -28.003906 L 14.753906 -29.914062 L 33.042969 -22.882812 Z M 21.757812 -13.355469 L 23.367188 -18.929688 L 18.394531 -20.714844 L 16.535156 -15.191406 Z M 17.074219 -1.296875 L 19.015625 -7.277344 L 14.132812 -8.941406 L 11.753906 -2.992188 Z M 17.074219 -1.296875 "/></g></g></g><g fill="#f2ac02" fill-opacity="1"><g transform="translate(296.413552, 311.963543)"><g><path d="M 33.828125 -20.140625 L 30.175781 -10.804688 L 26.988281 -8.492188 L 27.691406 -4.226562 L 23.78125 5.902344 L 20.742188 7.957031 L 3.8125 1.4375 L 2.292969 -2.425781 L 5.878906 -12.988281 L 9.066406 -15.429688 L 8.109375 -18.90625 L 11.453125 -28.003906 L 14.753906 -29.914062 L 33.042969 -22.882812 Z M 21.757812 -13.355469 L 23.367188 -18.929688 L 18.394531 -20.714844 L 16.535156 -15.191406 Z M 17.074219 -1.296875 L 19.015625 -7.277344 L 14.132812 -8.941406 L 11.753906 -2.992188 Z M 17.074219 -1.296875 "/></g></g></g><g fill="#fbfbfb" fill-opacity="1"><g transform="translate(297.919788, 275.77233)"><g><path d="M 5.109375 -0.296875 L 7.089844 0.628906 L 6.886719 1.472656 L 5.929688 2.222656 L 1.015625 0.382812 L 0.449219 -0.335938 L 2.480469 -5.699219 L 3.449219 -6.152344 L 8.222656 -4.175781 L 8.832031 -3.285156 L 7.441406 -0.308594 L 6.613281 -0.121094 L 3.546875 -1.417969 L 3.222656 -0.6875 L 4.761719 0.0273438 Z M 5.578125 -1.933594 L 5.949219 -3.078125 L 4.375 -3.769531 L 3.980469 -2.722656 Z M 5.578125 -1.933594 "/></g></g></g><g fill="#fbfbfb" fill-opacity="1"><g transform="translate(304.685889, 278.412093)"><g><path d="M 7.421875 -1.507812 L 7.535156 -0.351562 L 6.535156 1.949219 L 5.71875 2.167969 L 5.652344 2.140625 L 0.6875 0.269531 L 0.421875 -0.425781 L 1.289062 -2.183594 L 3.136719 -1.449219 L 3.074219 -0.824219 L 4.859375 -0.125 L 5.230469 -0.941406 L 1.933594 -2.558594 L 1.574219 -3.1875 L 2.667969 -5.820312 L 3.277344 -6.042969 L 7.988281 -4.371094 L 8.6875 -3.765625 L 8.179688 -2.171875 L 7.636719 -2.023438 L 6.082031 -2.566406 L 6.066406 -3.277344 L 4.507812 -3.808594 L 4.097656 -3.125 Z M 7.421875 -1.507812 "/></g></g></g><g fill="#fbfbfb" fill-opacity="1"><g transform="translate(311.318885, 280.999925)"><g><path d="M 6.9375 0.0585938 L 6.417969 1.390625 L 5.5 2.070312 L 1.03125 0.402344 L 0.886719 -0.472656 L 2.515625 -4.507812 L 2.132812 -4.773438 L 2.632812 -6.089844 L 2.976562 -6.25 L 3.304688 -6.144531 L 4.050781 -7.699219 L 5.761719 -6.992188 L 5.914062 -6.601562 L 5.40625 -5.328125 L 7.792969 -4.332031 L 7.921875 -3.832031 L 7.394531 -2.554688 L 7.023438 -2.457031 L 4.707031 -3.4375 L 3.523438 -0.699219 L 4.5625 -0.242188 L 5.21875 -1.175781 L 6.8125 -0.4375 Z M 6.9375 0.0585938 "/></g></g></g><g fill="#fbfbfb" fill-opacity="1"><g transform="translate(317.574758, 283.440625)"><g><path d="M 2.957031 -1.378906 L 3.375 -0.78125 L 2.601562 1.003906 L 0.515625 0.1875 L 0.347656 -0.234375 L 1.191406 -1.644531 L 1.734375 -1.820312 Z M 2.957031 -1.378906 "/></g></g></g></svg>
